<?xml version="1.0" encoding="utf-8"?>
<!-- Generator: Adobe Illustrator 23.0.0, SVG Export Plug-In . SVG Version: 6.00 Build 0)  -->
<svg version="1.1" id="Слой_1" xmlns="http://www.w3.org/2000/svg" xmlns:xlink="http://www.w3.org/1999/xlink" x="0px" y="0px"
	 viewBox="0 0 150 50" style="enable-background:new 0 0 150 50;" xml:space="preserve">
<style type="text/css">
	.st0{fill:#FFFFFF;}
	.st1{clip-path:url(#SVGID_2_);}
	.st2{fill:#FA5A5A;}
	.st3{fill:none;stroke:#FA5A5A;stroke-width:2.8346;stroke-miterlimit:10;}
</style>
<g>
	<path class="st0" d="M150,25c0,0-33.58,25-75,25S0,25,0,25S33.58,0,75,0S150,25,150,25z"/>
</g>
<g>
	<defs>
		<circle id="SVGID_1_" cx="75" cy="25" r="25"/>
	</defs>
	<clipPath id="SVGID_2_">
		<use xlink:href="#SVGID_1_"  style="overflow:visible;"/>
	</clipPath>
	<g class="st1">
		<path class="st2" d="M75,2.83c12.22,0,22.17,9.94,22.17,22.17S87.22,47.17,75,47.17S52.83,37.22,52.83,25S62.78,2.83,75,2.83
			 M75,0C61.19,0,50,11.19,50,25s11.19,25,25,25s25-11.19,25-25S88.81,0,75,0L75,0z"/>
	</g>
	<g class="st1">
		<path class="st2" d="M75,2.83c4.57,0,9.67,9.1,9.67,22.17S79.57,47.17,75,47.17s-9.67-9.1-9.67-22.17S70.43,2.83,75,2.83 M75,0
			c-6.9,0-12.5,11.19-12.5,25S68.1,50,75,50s12.5-11.19,12.5-25S81.9,0,75,0L75,0z"/>
	</g>
	<g class="st1">
		<line class="st3" x1="50" y1="24.5" x2="100" y2="24.5"/>
	</g>
	<g class="st1">
		<path class="st3" d="M49.92,13.51c16.53,2.46,33.63,2.8,50.16,0"/>
	</g>
	<g class="st1">
		<path class="st3" d="M49.85,2.5c17.92,4.48,32.49,4.46,50.31,0"/>
	</g>
	<g class="st1">
		<path class="st3" d="M49.92,35.49c16.53-2.46,33.63-2.79,50.16,0"/>
	</g>
	<g class="st1">
		<path class="st3" d="M49.85,46.5c17.92-4.48,32.49-4.46,50.31,0"/>
	</g>
</g>
</svg>
