<svg xmlns="http://www.w3.org/2000/svg" xmlns:xlink="http://www.w3.org/1999/xlink" x="0px" y="0px"
	 viewBox="0 0 566.9 566.9" >
<g>
	<path class="st0" d="M247.9,312.9c0-16.2-13.2-29.4-29.4-29.4c-16.2,0-29.4,13.2-29.4,29.4c0,16.2,13.2,29.8,29.4,29.4
		C234.8,342.3,247.9,329.1,247.9,312.9z"/>
	<path class="st0" d="M348.4,283.8c-16.2,0-29.4,13.2-29.4,29.4c0,16.2,13.2,29.4,29.4,29.4c16.2,0,29.4-13.5,29.4-29.4
		C377.8,297,364.7,283.8,348.4,283.8z"/>
	<path class="st0" d="M353.7,380.1c-3-2.9-7.8-2.9-10.7,0.1c-12.5,12.9-39.9,17.3-59.2,17.3c-19.3,0-46.3-4.4-59.2-17.3
		c0,0-0.1-0.1-0.1-0.1c-3-2.9-7.8-2.9-10.7,0.1c0,0-0.1,0.1-0.1,0.1c-2.9,3-2.9,7.8,0.1,10.7c20,20,58.5,21.7,70,21.7
		c11.2,0,49.7-1.4,70-21.7c2.7-3.1,2.7-7.7,0-10.8C353.8,380.2,353.7,380.1,353.7,380.1z"/>
	<path class="st0" d="M283.5,0C126.9,0,0,126.9,0,283.5s126.9,283.5,283.5,283.5S566.9,440,566.9,283.5S440,0,283.5,0z M448.2,321.4
		c0.7,4.1,1,8.5,1,12.5c0,63.9-74.1,115.3-165.4,115.3s-165.4-51.8-165.4-115.3c0-4.2,0.3-8.4,1-12.5c-14.2-6.4-24.4-20.6-24.4-37.5
		c0,0,0-0.1,0-0.1c0-22.8,18.5-41.2,41.3-41.2c10.7,0,21,4.1,28.8,11.5c28.8-20.6,68.3-33.8,112.3-35.2l21-98.8c0.3-2,1.3-3.7,3-4.7
		c1.4-1,3.4-1.4,5.4-1l68.7,14.5c4.9-10.1,15.1-16.5,26.4-16.6c16.2,0,29.4,13.2,29.4,29.4c0,15.7-12.4,28.7-28.1,29.4
		c-16.2,0.8-30-11.8-30.8-28.1l-61.6-13.2l-18.9,88.6c43.3,1.7,82.2,14.9,110.6,35.2c7.4-7.1,17.6-11.5,28.8-11.5c0,0,0.1,0,0.1,0
		c22.8,0,41.2,18.5,41.2,41.3l0,0C472.5,299.8,463,314.6,448.2,321.4z"/>
</g>
</svg>
